<svg width="640" height="89" viewBox="0 0 640 89" fill="none" xmlns="http://www.w3.org/2000/svg">
<path d="M2 56C34.1428 58.5714 66.2094 62.1724 98.4444 63.5556C117.281 64.3638 144.893 65.0523 164.333 62.3333C172.196 61.2337 187.592 57.7596 194.111 50.8889C205.948 38.4132 181.378 31.2368 174.222 30.1111C162.939 28.3363 149.028 28.5718 137.889 31.5556C137.066 31.776 135.386 33.104 136.167 33.4444C139.512 34.9025 147.515 34.6667 149.611 34.6667C160.404 34.6667 171.637 34.1656 182.333 32.8889C190.482 31.9163 211.582 30.8476 215.333 19.8889C220.852 3.76809 186.107 3.01937 180.111 2.66667C173.301 2.26608 148.064 2 140.667 2C136.851 2 133.034 2.00213 129.222 2.16667C125.503 2.32723 123.483 2.28527 127.167 3.66667C128.62 4.21157 143.093 7.38203 139.778 9.72222C125.855 19.5504 106.415 20.2366 91.2778 27.6111C90.4221 28.028 88.6235 29.6959 89.5556 29.8889C96.2675 31.2789 103.214 31.082 110.056 31.5C150.077 33.945 190.133 35.7653 230.167 38C250.045 39.1096 312.087 42.677 338.5 44.2778C343.335 44.5708 349.118 42.3259 353 45.2222C355.972 47.4398 345.676 46.4005 342 46.8889C330.342 48.4376 318.675 49.9194 307 51.3333C230.402 60.6101 153.736 68.7919 76.8889 75.6667C65.1369 76.718 62.8184 76.8424 77 77C149.245 77.8027 221.478 78.182 293.722 79.3333C404.421 81.0975 515.111 83.4512 625.778 86.6667C648.212 87.3185 635.041 87 630 87" stroke="black" stroke-width="3" stroke-linecap="round"/>
</svg>
